Coordinates
version=1
nRows=15
nColumns=23
inDegrees=yes

Units are S.I. units (second, meters, Newtons, ...)
If the header above contains a line with 'inDegrees', this indicates whether rotational values are in degrees (yes) or radians (no).

endheader
time	pelvis_tilt	pelvis_list	pelvis_rotation	pelvis_tx	pelvis_ty	pelvis_tz	hip_flexion_r	hip_adduction_r	hip_rotation_r	knee_angle_r	knee_angle_r_beta	ankle_angle_r	subtalar_angle_r	mtp_angle_r	hip_flexion_l	hip_adduction_l	hip_rotation_l	knee_angle_l	knee_angle_l_beta	ankle_angle_l	subtalar_angle_l	mtp_angle_l
     24.76000000	      5.59303815	     12.88495897	      6.32387347	      2.22431897	      0.97706321	      0.98755132	      4.42616153	    -21.12563690	     -6.33781708	     78.66040063	      1.37288298	      2.00393837	    -34.45635612	      0.00000000	     12.29309037	     21.76609426	      8.83773457	     47.06527040	      0.82144393	     19.46371048	    -21.07472477	      0.00000000
     24.76666667	      5.64634839	     12.67890707	      6.51757835	      2.22227393	      0.97669237	      0.98807403	      5.99678449	    -20.94619701	     -5.98960828	     79.06588965	      1.37996010	      2.64695088	    -34.71698191	      0.00000000	     11.03524285	     21.46585001	      9.37657830	     46.92346596	      0.81896898	     20.26649140	    -20.89346862	      0.00000000
     24.77333333	      5.62132117	     12.41136113	      6.65392819	      2.22040292	      0.97668961	      0.98865457	      7.65174825	    -20.65992679	     -5.57920275	     79.26696948	      1.38346961	      3.23519945	    -34.84076355	      0.00000000	      9.78898609	     21.05395650	      9.82717119	     46.60931706	      0.81348604	     20.98141305	    -20.65266025	      0.00000000
     24.78000000	      5.02783466	     11.79158848	      5.90297885	      2.21864373	      0.97625194	      0.99041558	     10.49122915	    -19.72010972	     -3.98478078	     79.45803904	      1.38680440	      3.63981597	    -35.07056989	      0.00000000	      9.48895782	     19.99914863	      8.90113762	     46.30069575	      0.80809959	     21.80189522	    -19.71019283	      0.00000000
     24.78666667	      4.94142881	     11.47382505	      6.06894674	      2.21707097	      0.97700053	      0.99074375	     12.05224711	    -19.36252010	     -3.74486994	     79.21785350	      1.38261237	      4.19862538	    -34.84812240	      0.00000000	      8.16088395	     19.55785589	      9.44901890	     45.70633170	      0.79772598	     22.23364750	    -19.44535824	      0.00000000
     24.79333333	      5.16359050	     10.89191358	      5.58378367	      2.21577706	      0.97845172	      0.99192356	     13.45211357	    -18.45176182	     -2.96640082	     78.72862615	      1.37407374	      4.70258287	    -34.52455664	      0.00000000	      6.60285509	     18.60090399	      9.19865277	     44.96716429	      0.78482507	     22.69952550	    -18.91517832	      0.00000000
     24.80000000	      4.92332118	     10.49906481	      5.70778496	      2.21472813	      0.97977832	      0.99220717	     15.02737927	    -17.98827278	     -2.81297756	     78.06853648	      1.36255300	      5.17017477	    -34.08580779	      0.00000000	      5.35554864	     18.05669027	      9.68588977	     44.15410623	      0.77063453	     22.90335890	    -18.54698599	      0.00000000
     24.80666667	      5.12420424	      9.67360445	      5.34278787	      2.21387021	      0.98200566	      0.99305445	     16.14865801	    -16.79314149	     -2.38371568	     77.08289295	      1.34535028	      5.66562780	    -33.47147287	      0.00000000	      3.73055341	     16.89606146	      9.63803330	     43.26677205	      0.75514763	     23.03587450	    -18.17364171	      0.00000000
     24.81333333	      4.75022650	      9.24063819	      5.40728098	      2.21348947	      0.98390984	      0.99338176	     17.66847973	    -16.27138329	     -2.33569309	     75.98455718	      1.32618070	      6.02533050	    -32.93796924	      0.00000000	      2.56030107	     16.28235060	     10.03791320	     42.26079168	      0.73758996	     22.94737293	    -17.68235925	      0.00000000
     24.82000000	      5.64549300	      8.13117184	      4.90307766	      2.21331377	      0.98776927	      0.99449927	     17.68297409	    -14.64889066	     -2.20622093	     74.36280415	      1.29787577	      6.35398254	    -32.43074840	      0.00000000	      0.09375488	     14.63229613	      9.69280706	     41.10813340	      0.71747228	     22.88994916	    -16.77581307	      0.00000000
     24.82666667	      5.86601779	      7.25584801	      4.80452657	      2.21342093	      0.99109678	      0.99498103	     18.26387550	    -13.52657250	     -2.40818508	     72.66562397	      1.26825439	      6.69417713	    -31.72392657	      0.00000000	     -1.71828725	     13.41366403	      9.83139971	     39.94543993	      0.69717945	     22.44109429	    -16.24842610	      0.00000000
     24.83333333	      6.02692721	      6.31472724	      4.67272991	      2.21384492	      0.99461417	      0.99549796	     18.80171218	    -12.32822777	     -2.66064251	     70.75944538	      1.23498530	      7.01508593	    -30.97530602	      0.00000000	     -3.45488554	     12.10309285	      9.80902560	     38.74179622	      0.67617190	     21.77352823	    -15.66328860	      0.00000000
     24.84000000	      6.16116493	      5.32178884	      4.50547675	      2.21445870	      0.99835608	      0.99603071	     19.27296078	    -11.07363081	     -2.96503132	     68.64994239	      1.19816753	      7.24050157	    -30.18814355	      0.00000000	     -5.15506586	     10.73911147	      9.67606188	     37.49149214	      0.65434998	     20.88249438	    -15.04543118	      0.00000000
     24.84666667	      5.47369201	      4.70208600	      4.44650504	      2.21532567	      1.00121594	      0.99642308	     20.63485798	    -10.35474859	     -3.24350574	     66.59778235	      1.16235058	      7.45014241	    -29.33873741	      0.00000000	     -5.95695339	      9.89049023	      9.66494674	     36.28086674	      0.63322058	     19.58416784	    -14.57249963	      0.00000000
     24.85333333	      6.36413591	      3.24699441	      4.05867867	      2.21640541	      1.00628524	      0.99719729	     19.97293683	     -8.48386707	     -3.74052338	     63.85509238	      1.11448161	      7.62708451	    -28.46219230	      0.00000000	     -8.43240431	      7.87830776	      8.81466678	     34.92665551	      0.60958514	     18.37800290	    -13.59579784	      0.00000000
